<svg width="18" height="11" viewBox="0 0 18 11" fill="none" xmlns="http://www.w3.org/2000/svg">
<path d="M3.12828 1.49609C4.81398 0.843559 6.92784 0.75 8.70833 0.75C10.4888 0.75 12.6027 0.843559 14.2884 1.49609C15.1443 1.82741 15.9358 2.31951 16.5128 3.05819C17.098 3.80722 17.4167 4.75116 17.4167 5.89583C17.4167 7.05966 17.0011 8.21811 16.3246 9.09607C15.6504 9.97094 14.6484 10.6458 13.4583 10.6458C12.3303 10.6458 11.3554 10.0199 10.6282 9.55302C10.0696 9.19439 9.40761 8.66667 8.70833 8.66667C8.00905 8.66667 7.34698 9.19439 6.78846 9.55302C6.06121 10.0199 5.08635 10.6458 3.95833 10.6458C2.7682 10.6458 1.76627 9.97094 1.09208 9.09607C0.415538 8.21811 0 7.05966 0 5.89583C0 4.75116 0.318638 3.80722 0.903814 3.05819C1.48091 2.31951 2.27237 1.82741 3.12828 1.49609Z" fill="#FDD38C"/>
</svg>
