<svg  viewBox="0 0 13 12" fill="none" xmlns="http://www.w3.org/2000/svg">
<path d="M11.6764 3.41567C11.6764 3.28436 11.6741 3.15454 11.6687 3.0256C12.19 2.60735 12.6423 2.0838 13 1.48469C12.5142 1.72006 11.9973 1.87235 11.4679 1.93605C12.0189 1.57094 12.4414 0.987016 12.6411 0.286278C12.1252 0.62319 11.5545 0.864053 10.9478 0.989559C10.4616 0.393883 9.76779 0.014477 9.00081 0.000378275C7.5278 -0.0258438 6.33371 1.31452 6.33371 2.99377C6.33371 3.23246 6.35689 3.46394 6.40291 3.68747C4.18474 3.53377 2.21916 2.29052 0.904337 0.416302C0.674917 0.865337 0.543295 1.39012 0.543295 1.95252C0.543295 3.01622 1.01417 3.96162 1.72963 4.51949C1.29163 4.49816 0.881338 4.35532 0.521465 4.12112V4.16019C0.521465 5.64685 1.44112 6.89244 2.66139 7.18306C2.43768 7.25158 2.20173 7.28723 1.95905 7.28595C1.79044 7.28501 1.62238 7.26519 1.45758 7.22681C1.79666 8.4451 2.78212 9.33517 3.94881 9.36483C3.03571 10.1801 1.88549 10.667 0.636691 10.6636C0.421373 10.6636 0.2086 10.6481 0 10.6199C1.18081 11.492 2.58247 12 4.08924 12C8.99409 12.0013 11.6764 7.40422 11.6764 3.41567Z" fill="currentColor" fill-opacity="0.4"/>
</svg>
