<svg  viewBox="0 0 9 8" fill="none" xmlns="http://www.w3.org/2000/svg">
<path d="M8.95366 6.30743L7.46793 7.89105C7.43563 7.92545 7.39655 7.95287 7.35313 7.97162C7.30971 7.99036 7.26286 8.00003 7.21553 8H0.172482C0.138875 8 0.106001 7.99024 0.0778991 7.97193C0.0497966 7.95361 0.0276897 7.92754 0.0142945 7.8969C0.000899313 7.86627 -0.00320062 7.83242 0.00249845 7.7995C0.00819752 7.76658 0.0234473 7.73604 0.0463742 7.71162L1.53322 6.128C1.56543 6.09369 1.60438 6.06632 1.64766 6.04758C1.69095 6.02884 1.73764 6.01913 1.78486 6.01905H8.82751C8.86112 6.01905 8.89399 6.02881 8.92211 6.04712C8.95018 6.06544 8.97228 6.09152 8.98574 6.12215C8.9991 6.15278 9.0032 6.18663 8.9975 6.21955C8.9918 6.25246 8.97656 6.28301 8.95366 6.30743ZM7.46793 3.11847C7.43563 3.08407 7.39655 3.05665 7.35313 3.0379C7.30971 3.01916 7.26286 3.0095 7.21553 3.00953H0.172482C0.138875 3.00953 0.106001 3.01928 0.0778991 3.0376C0.0497966 3.05592 0.0276897 3.08199 0.0142945 3.11262C0.000899313 3.14325 -0.00320062 3.17711 0.00249845 3.21003C0.00819752 3.24294 0.0234473 3.27348 0.0463742 3.29791L1.53322 4.88153C1.56543 4.91584 1.60438 4.9432 1.64766 4.96195C1.69095 4.98068 1.73764 4.9904 1.78486 4.99047H8.82751C8.86112 4.99047 8.89399 4.98072 8.92211 4.9624C8.95018 4.94408 8.97228 4.91801 8.98574 4.88738C8.9991 4.85675 9.0032 4.82289 8.9975 4.78997C8.9918 4.75706 8.97656 4.72652 8.95366 4.70209L7.46793 3.11847ZM0.172482 1.98095H7.21553C7.26286 1.98097 7.30971 1.97132 7.35313 1.95257C7.39655 1.93383 7.43563 1.9064 7.46793 1.872L8.95366 0.288381C8.97656 0.263961 8.9918 0.233416 8.9975 0.2005C9.0032 0.167584 8.9991 0.13373 8.98574 0.103098C8.97228 0.0724664 8.95018 0.0463905 8.92211 0.0280748C8.89399 0.009759 8.86112 1.12795e-06 8.82751 0H1.78486C1.73764 7.98543e-05 1.69095 0.00979082 1.64766 0.0285316C1.60438 0.0472725 1.56543 0.0746443 1.53322 0.108953L0.0467575 1.69257C0.0238527 1.71696 0.00860968 1.74748 0.00289769 1.78035C-0.00281432 1.81324 0.00125308 1.84706 0.014601 1.87768C0.027949 1.9083 0.0499973 1.93437 0.0780419 1.95272C0.106087 1.97106 0.138908 1.98087 0.172482 1.98095Z" fill="url(#paint0_linear_2023_522)"/>
<defs>
<linearGradient id="paint0_linear_2023_522" x1="0.759705" y1="8.19066" x2="8.09475" y2="-0.12903" gradientUnits="userSpaceOnUse">
<stop offset="0.08" stop-color="#9945FF"/>
<stop offset="0.3" stop-color="#8752F3"/>
<stop offset="0.5" stop-color="#5497D5"/>
<stop offset="0.6" stop-color="#43B4CA"/>
<stop offset="0.72" stop-color="#28E0B9"/>
<stop offset="0.97" stop-color="#19FB9B"/>
</linearGradient>
</defs>
</svg>
