<svg  viewBox="0 0 14 14" fill="none" xmlns="http://www.w3.org/2000/svg">
<path d="M9.289 10.211L10.4375 4.797C10.539 4.3205 10.2655 4.133 9.953 4.25L3.203 6.8515C2.742 7.031 2.75 7.289 3.125 7.406L4.8515 7.945L8.8595 5.4215C9.047 5.2965 9.219 5.367 9.0785 5.492L5.8365 8.4215L5.7115 10.203C5.891 10.203 5.9695 10.125 6.063 10.031L6.9065 9.2185L8.6565 10.5075C8.977 10.687 9.2035 10.5935 9.2895 10.2105L9.289 10.211ZM14 7C14 10.867 10.867 14 7 14C3.133 14 0 10.867 0 7C0 3.133 3.133 0 7 0C10.867 0 14 3.133 14 7Z" fill="currentColor"/>
</svg>
