<svg width="14" height="14" viewBox="0 0 14 14" fill="none" xmlns="http://www.w3.org/2000/svg">
<path d="M7 0C3.1405 0 0 3.14 0 7C0 10.86 3.14 14 7 14C10.8595 14 14 10.86 14 7C14 3.14 10.86 0 7 0ZM9.8555 9.156C10.0505 9.352 10.05 9.668 9.8545 9.863C9.757 9.96 9.6295 10.009 9.5015 10.009C9.373 10.009 9.245 9.96 9.1475 9.862L6.9975 7.7055L4.8405 9.8395C4.743 9.9355 4.616 9.984 4.489 9.984C4.36 9.984 4.2315 9.9345 4.1335 9.8355C3.9395 9.639 3.941 9.323 4.1375 9.1285L6.292 6.9975L4.1455 4.844C3.9505 4.6485 3.951 4.332 4.1465 4.137C4.342 3.9415 4.658 3.9425 4.8535 4.138L7.003 6.294L9.16 4.16C9.356 3.9655 9.673 3.9675 9.867 4.164C10.0615 4.3605 10.0595 4.677 9.863 4.871L7.7085 7.002L9.8555 9.156Z" fill="#F0616D"/>
</svg>
