<svg  viewBox="0 0 11 12" fill="none" xmlns="http://www.w3.org/2000/svg">
<path d="M2.06697 2.83891C3.00788 2.13513 4.20138 1.71429 5.5 1.71429C6.79861 1.71429 7.99211 2.13513 8.93304 2.83891L9.82123 2.00841L10.6855 2.81653L9.79727 3.64703C10.5499 4.52685 11 5.64286 11 6.85714C11 9.69749 8.53759 12 5.5 12C2.46244 12 0 9.69749 0 6.85714C0 5.64286 0.450065 4.52685 1.20273 3.64703L0.314551 2.81653L1.17879 2.00841L2.06697 2.83891ZM6.11111 6.28571V3.71154L3.05556 7.42857H4.88889V10L7.94444 6.28571H6.11111ZM3.05556 0H7.94444V1.14286H3.05556V0Z" fill="currentColor"/>
</svg>
