<svg  viewBox="0 0 14 16" fill="none" xmlns="http://www.w3.org/2000/svg">
<path d="M5.71987 0.0719972C5.14226 0.177475 4.68016 0.33318 4.19296 0.584317C3.77105 0.800295 3.15325 1.24732 2.93727 1.48841C2.88202 1.54868 2.78157 1.59891 2.71125 1.59891C2.49025 1.59891 2.06834 1.36787 1.772 1.08659C1.46059 0.795272 1.46059 0.8455 1.77702 1.398C2.39984 2.49798 3.70073 3.74865 5.10207 4.59247C5.39842 4.76826 5.66462 4.91392 5.68974 4.91392C5.71485 4.91392 5.86051 4.85365 6.01621 4.77329C6.41301 4.58242 6.88515 4.58242 7.28697 4.77831L7.57326 4.91895L7.83947 4.78333C9.23077 4.08517 11.0038 2.4126 11.6015 1.23727C11.7371 0.966046 11.8024 0.765136 11.6919 0.961023C11.6115 1.10166 11.0992 1.45827 10.833 1.55873L10.5919 1.64914L10.376 1.45827C9.53213 0.694818 8.63809 0.247793 7.59838 0.0669746C7.07601 -0.0234351 6.23219 -0.0234351 5.71987 0.0719972Z" fill="currentColor"/>
<path d="M11.2057 3.06668C11.1505 3.15709 10.9647 3.39818 10.7889 3.60411C10.4774 3.96575 10.4724 3.9758 10.5327 4.1315C10.7035 4.54839 10.7386 4.69405 10.7436 5.01048C10.7487 5.20135 10.7236 5.44244 10.6884 5.55294C10.4875 6.16069 9.82951 6.64287 9.08614 6.71319C8.76971 6.74835 8.75464 6.75337 8.76469 6.87392C8.79482 7.35108 8.82496 7.54195 8.87017 7.57208C8.9003 7.58715 9.27701 7.80313 9.70394 8.05426C10.1359 8.30038 10.4774 8.5264 10.4724 8.55654C10.4624 8.58165 10.2765 8.70722 10.0555 8.82777C9.06103 9.37525 8.86514 9.51086 8.61903 9.81222C8.12178 10.425 7.56425 11.7912 6.94646 13.9309C6.81586 14.3729 6.69532 14.7546 6.6702 14.7797C6.61495 14.835 6.64007 14.9204 6.24829 13.5743C5.79625 12.0473 5.61041 11.53 5.21361 10.7163C4.73142 9.73186 4.56567 9.56109 3.58122 9.00356C3.15428 8.76749 2.80269 8.55152 2.80269 8.53143C2.80269 8.50631 3.18944 8.27024 3.65656 8.00404L4.51042 7.51181L4.52047 7.19538C4.52047 7.01958 4.52549 6.84881 4.53052 6.81365C4.53554 6.77849 4.45015 6.74835 4.32458 6.74333C3.83738 6.71821 3.29492 6.46206 2.9584 6.0954C2.4963 5.59312 2.40589 4.91003 2.71228 4.20182C2.83283 3.92055 2.88306 4.02602 2.30544 3.33791C2.12964 3.12695 1.96892 2.95618 1.95385 2.95618C1.90362 2.9612 1.58719 3.71461 1.46664 4.1315C1.30089 4.69405 1.24564 5.34701 1.24564 6.79858C1.24564 7.49674 1.22053 8.36567 1.19039 8.73736C1.08994 9.96291 0.703184 11.4396 0.20091 12.5195L0 12.9464L0.868935 12.2483C1.35112 11.8615 1.75294 11.5451 1.76801 11.5451C1.77805 11.5451 2.07942 12.0172 2.43101 12.5948L3.07392 13.6446L3.75199 13.0017C4.41499 12.3738 4.43508 12.3638 4.51042 12.4642C4.60083 12.5948 5.31909 13.7551 6.05743 14.9706C6.35377 15.4628 6.61495 15.8546 6.64007 15.8496C6.66518 15.8395 7.15741 15.066 7.73503 14.1318C8.31264 13.1925 8.80487 12.419 8.82998 12.409C8.8551 12.3989 9.16149 12.6651 9.5181 12.9966C9.86969 13.3332 10.1761 13.6044 10.1911 13.6044C10.2112 13.6044 10.4925 13.1674 10.819 12.64C11.1404 12.1076 11.4368 11.6405 11.4669 11.6053C11.5121 11.5551 11.6929 11.6757 12.366 12.2181C12.8281 12.5948 13.2249 12.9113 13.245 12.9213C13.2651 12.9364 13.1646 12.6651 13.019 12.3236C12.592 11.3291 12.2957 10.2492 12.14 9.13415C12.1098 8.89809 12.0646 7.82322 12.0445 6.74835C12.0044 4.65889 11.9843 4.50821 11.7181 3.75982C11.5824 3.38814 11.3564 2.90595 11.3213 2.90595C11.3112 2.90595 11.256 2.98129 11.2057 3.06668Z" fill="currentColor"/>
<path d="M3.47582 4.79386C3.37537 5.34134 3.64157 5.70298 4.23426 5.81348C4.4653 5.85868 4.83699 5.8185 5.0831 5.72307C5.22374 5.66782 5.22374 5.6628 4.67626 5.33632C4.3749 5.1555 4.00823 4.91943 3.8676 4.80893C3.72194 4.70345 3.5813 4.61304 3.55619 4.61304C3.53107 4.61304 3.49591 4.69341 3.47582 4.79386Z" fill="currentColor"/>
<path d="M9.33325 4.88947C9.12732 5.03513 8.75564 5.26618 8.50952 5.41184L8.0625 5.668L8.25336 5.74836C8.394 5.80361 8.55975 5.8237 8.85609 5.80863C9.20266 5.79859 9.29809 5.77347 9.47389 5.65795C9.71498 5.49722 9.8506 5.26618 9.8506 5.01504C9.8506 4.81413 9.79535 4.61322 9.74512 4.61824C9.72503 4.61824 9.53919 4.74381 9.33325 4.88947Z" fill="currentColor"/>
<path d="M6.20354 5.66809C5.70629 5.98453 5.47524 6.49685 5.41999 7.40094C5.3999 7.73244 5.36976 8.0338 5.34967 8.06394C5.32958 8.0991 5.15378 8.2096 4.96292 8.31508C4.76703 8.41553 4.61133 8.51599 4.61133 8.53106C4.61133 8.54612 4.7369 8.64658 4.8926 8.75708C5.50538 9.19406 6.02774 10.0429 6.3944 11.1931C6.49486 11.5095 6.59029 11.8059 6.60536 11.8461C6.6154 11.8862 6.74599 11.5799 6.89165 11.168C7.36379 9.81688 7.82086 9.10365 8.48889 8.67672L8.735 8.51599L8.38341 8.3201C8.18752 8.21462 7.99666 8.07399 7.95647 8.01371C7.91127 7.9434 7.87611 7.69728 7.86104 7.3256C7.83593 6.61739 7.71538 6.26078 7.3889 5.91421C6.98709 5.48225 6.6154 5.40691 6.20354 5.66809Z" fill="currentColor"/>
</svg>
