<svg viewBox="0 0 14 14" fill="none" xmlns="http://www.w3.org/2000/svg">
<path d="M7 0C3.134 0 0 3.134 0 7C0 10.866 3.134 14 7 14C10.866 14 14 10.866 14 7C14 3.134 10.866 0 7 0ZM9.3225 10.0935L9.0035 10.412C8.919 10.497 8.8595 10.601 8.8295 10.714C8.7865 10.874 8.7525 11.0355 8.6945 11.1905L8.204 12.513C7.8155 12.5975 7.4135 12.645 7 12.645V11.8725C7.0475 11.516 6.7845 10.849 6.3615 10.426C6.27752 10.3421 6.21089 10.2425 6.16542 10.1329C6.11995 10.0232 6.09653 9.9057 6.0965 9.787V8.8835C6.09684 8.72237 6.05391 8.56411 5.9722 8.42523C5.8905 8.28636 5.77301 8.17197 5.632 8.094C5.17699 7.84065 4.71776 7.59495 4.2545 7.357C3.93061 7.1931 3.63011 6.98661 3.361 6.743L3.3385 6.723C3.14564 6.54898 2.97441 6.35241 2.8285 6.1375C2.564 5.749 2.1325 5.1095 1.8525 4.694C2.43197 3.40637 3.47057 2.38096 4.7655 1.818L5.443 2.157C5.51187 2.19156 5.58844 2.20792 5.66542 2.20452C5.7424 2.20112 5.81723 2.17807 5.88279 2.13758C5.94834 2.09708 6.00244 2.04048 6.03994 1.97317C6.07743 1.90585 6.09708 1.83006 6.097 1.753V1.434C6.322 1.3975 6.552 1.3745 6.785 1.366L7.584 2.1645C7.626 2.20643 7.65932 2.25624 7.68205 2.31106C7.70478 2.36588 7.71648 2.42465 7.71648 2.484C7.71648 2.54335 7.70478 2.60212 7.68205 2.65694C7.65932 2.71176 7.626 2.76157 7.584 2.8035L7.4515 2.9355L7.16 3.2275C7.1178 3.26986 7.09411 3.32721 7.09411 3.387C7.09411 3.44679 7.1178 3.50414 7.16 3.5465L7.292 3.679C7.3342 3.72136 7.35789 3.77871 7.35789 3.8385C7.35789 3.89829 7.3342 3.95564 7.292 3.998L7.0665 4.224C7.04547 4.24497 7.02052 4.2616 6.99307 4.27292C6.96561 4.28425 6.9362 4.29005 6.9065 4.29H6.653C6.59416 4.28997 6.53764 4.31294 6.4955 4.354L6.2155 4.6265C6.18106 4.65989 6.15814 4.70337 6.15005 4.75065C6.14196 4.79793 6.14912 4.84656 6.1705 4.8895L6.6105 5.7695C6.6855 5.9195 6.5765 6.0965 6.409 6.0965H6.25C6.19565 6.0966 6.14309 6.07707 6.102 6.0415L5.84 5.8135C5.78072 5.76205 5.70907 5.72693 5.63209 5.71159C5.55512 5.69625 5.47547 5.70121 5.401 5.726L4.521 6.0195C4.4577 6.04064 4.40209 6.08007 4.3612 6.13281C4.3203 6.18555 4.29596 6.24923 4.29125 6.3158C4.28654 6.38237 4.30168 6.44885 4.33474 6.50682C4.3678 6.56479 4.41731 6.61166 4.477 6.6415L4.79 6.7975C5.05545 6.9303 5.34818 6.99946 5.645 6.9995C5.9425 6.9995 6.283 7.77 6.5485 7.903H8.4325C8.6725 7.903 8.902 7.998 9.0715 8.1675L9.458 8.554C9.6195 8.7155 9.71 8.934 9.71 9.1625C9.71 9.5125 9.5705 9.8475 9.3225 10.0935ZM11.77 7.515C11.6066 7.47402 11.4644 7.37367 11.371 7.2335L10.8635 6.4725C10.7892 6.36127 10.7496 6.23051 10.7496 6.09675C10.7496 5.96299 10.7892 5.83223 10.8635 5.721L11.416 4.892C11.4815 4.794 11.571 4.7145 11.677 4.662L12.0435 4.4785C12.4384 5.2604 12.6444 6.12403 12.645 7C12.645 7.245 12.6245 7.4845 12.594 7.721L11.77 7.515Z" fill="currentColor" fill-opacity="0.9"/>
</svg>
