<svg  viewBox="0 0 14 14" fill="none" xmlns="http://www.w3.org/2000/svg">
<path d="M7 0C3.14041 0 0 3.14041 0 7C0 10.8601 3.13991 14 7 14C10.8601 14 14 10.8601 14 7C14 3.14041 10.8601 0 7 0ZM10.378 5.84539L6.35665 9.91039C6.35565 9.91139 6.35364 9.9119 6.35263 9.9134C6.35113 9.91441 6.35113 9.91642 6.34962 9.91742C6.31748 9.94856 6.2778 9.96764 6.24064 9.98874C6.22205 9.99928 6.20699 10.0154 6.1874 10.0229C6.12713 10.047 6.06335 10.0595 5.99957 10.0595C5.93529 10.0595 5.8705 10.047 5.80973 10.0219C5.78964 10.0133 5.77357 9.99627 5.75448 9.98572C5.71732 9.96463 5.67865 9.94605 5.64651 9.91441C5.6455 9.9134 5.645 9.91139 5.64399 9.91039C5.64299 9.90888 5.64098 9.90888 5.63998 9.90738L3.66222 7.87487C3.46886 7.67599 3.47338 7.35809 3.67226 7.16473C3.87114 6.97188 4.18855 6.97539 4.38241 7.17477L6.00309 8.84015L9.6643 5.13876C9.85916 4.94138 10.1776 4.93937 10.3744 5.13474C10.5708 5.3301 10.5728 5.64801 10.378 5.84539Z" fill="#27AD75"/>
</svg>
